<mxfile host="app.diagrams.net" modified="2024-06-02T14:37:42.304Z" agent="Mozilla/5.0 (Windows NT 10.0; Win64; x64) AppleWebKit/537.36 (KHTML, like Gecko) Chrome/125.0.0.0 Safari/537.36" version="24.4.13" etag="pO_9LYsef7tiFI0r4M-h" type="github">
  <diagram name="PaginÄƒ-1" id="klZ0n1PgR3VQ76F-V86R">
    <mxGraphModel>
      <root>
        <mxCell id="0" />
        <mxCell id="1" parent="0" />
      </root>
    </mxGraphModel>
  </diagram>
</mxfile>
